<svg width="424" height="229" viewBox="0 0 424 229" fill="none" xmlns="http://www.w3.org/2000/svg">
<g clip-path="url(#clip0_1127_27591)" filter="url(#filter0_d_1127_27591)">
<rect width="380" height="181" transform="translate(20 16)" fill="url(#paint0_linear_1127_27591)"/>
<g opacity="0.5">
<path opacity="0.25" d="M450.421 -11.3157C446.685 -8.05313 442.643 -5.07326 438.011 -2.51741C426.933 3.58366 413.109 3.5837 402.031 10.2501C369.951 29.5427 370.116 64.2764 358.024 95.4767C339.015 144.521 305.921 135.499 261.644 139.939C227.408 143.367 188.021 160.445 187.739 200.844C187.562 227.203 217.131 244.658 194.303 264.01C181.481 274.881 158.688 268.132 143.98 273.02C123.65 279.769 112.419 292.23 103.474 307L450.397 306.293L450.421 -11.3157ZM374.323 72.0853C375.867 68.4459 376.81 64.5944 378.354 60.9432C379.768 57.61 381.324 54.3356 382.667 50.9671C385.343 44.2418 388.159 37.8463 392.602 32.075C398.448 24.4781 407.204 14.1251 417.811 15.244C418.377 15.3029 418.884 15.9743 418.895 16.5161C418.907 20.662 414.994 23.5358 412.19 26.0328C407.44 30.2494 402.773 34.7015 398.365 39.2714C393.321 44.5127 389.137 50.1191 386.509 56.9386C385.307 60.048 384.364 63.2988 382.962 66.3258C381.548 69.3763 379.438 71.6024 377.058 73.958C376.445 74.5587 375.655 74.4409 375.137 74.0051C374.488 73.7107 373.958 72.9451 374.323 72.0853ZM296.128 152.872C298.391 149.668 303.953 148.549 307.383 150.339C308.502 150.916 309.469 151.906 310.082 153.072C311.838 155.168 311.425 158.325 309.174 159.962C306.805 161.693 302.963 162.353 300.158 161.481C296.505 160.339 293.535 156.535 296.128 152.872ZM203.012 206.745C199.429 199.324 201.044 190.514 206.018 184.166C209.306 179.961 213.619 176.145 217.532 172.506C221.02 169.267 224.733 166.251 228.74 163.66C236.494 158.643 245.215 155.156 254.349 153.684C263.895 152.141 273.618 153.154 283.188 153.814C284.142 153.884 284.908 154.25 285.486 154.791C288.868 156.617 288.09 160.987 285.509 163.272C282.268 166.134 277.743 166.216 273.818 167.535C269.328 169.043 265.227 171.728 261.491 174.614C252.982 181.186 246.087 189.737 239.04 197.782C233.795 203.765 228.174 211.574 220.455 214.53C213.336 217.239 206.194 213.34 203.012 206.745ZM178.888 244.423C173.137 250.171 163.803 250.171 158.051 244.423C152.3 238.675 152.3 229.347 158.051 223.599C163.803 217.851 173.137 217.851 178.888 223.599C184.639 229.347 184.639 238.675 178.888 244.423ZM329.716 108.668C317.059 121.318 296.54 121.318 283.883 108.668C271.226 96.0185 271.226 75.5127 283.883 62.863C296.54 50.2133 317.059 50.2133 329.716 62.863C342.373 75.5127 342.373 96.0185 329.716 108.668ZM355.974 52.4511C351.366 57.0564 343.905 57.0564 339.309 52.4511C334.701 47.8459 334.701 40.3903 339.309 35.7969C343.917 31.1916 351.377 31.1916 355.974 35.7969C360.57 40.3903 360.57 47.8577 355.974 52.4511Z" fill="white"/>
<path opacity="0.25" d="M143.148 -11.6696C144.735 -10.0822 144.735 -7.51157 143.148 -5.93313C141.562 -4.34566 138.993 -4.34566 137.416 -5.93313C135.829 -7.52059 135.829 -10.0912 137.416 -11.6696C139.002 -13.2571 141.562 -13.2571 143.148 -11.6696ZM134.225 -51.8523C128.772 -46.3954 128.772 -37.5381 134.225 -32.0812C139.678 -26.6243 148.529 -26.6243 153.982 -32.0812C159.436 -37.5381 159.436 -46.3954 153.982 -51.8523C148.529 -57.3092 139.687 -57.3182 134.225 -51.8523ZM234.842 -93C229.569 -84.278 225.495 -75.4567 210.659 -71.4159C190.766 -66.0041 170.675 -75.4838 150.819 -74.3203C86.1292 -70.514 139.372 -5.93312 112.683 24.9412C91.0866 49.9347 55.6187 35.395 40.5032 68.7678C31.1562 89.3958 30.2819 111.674 18.1318 131.698C7.0092 150.026 -8.0793 167.109 -30 170.158V146.959C-29.6845 146.977 -29.36 146.986 -29.0536 146.986C-21.969 147.013 -15.6776 142.982 -10.5129 138.49C-2.27464 131.328 4.82795 122.678 11.0472 113.731C14.1839 109.221 17.0592 104.765 18.6546 99.4617C19.3757 97.0625 22.287 84.6514 21.0341 81.2059C19.7903 77.7965 16.1488 75.6137 12.5795 76.4525C5.30566 78.1573 6.33319 87.673 4.01674 93.0578C0.303196 101.699 -7.48442 108.184 -16.1914 111.395C-20.8604 113.117 -25.6375 114.416 -29.991 116.545V-93H189.982C181.735 -90.3121 173.1 -88.409 164.528 -87.7596C162.32 -87.5972 162.23 -84.5215 163.987 -83.9713C166.169 -82.4109 168.638 -82.3297 171.216 -81.6984C173.019 -81.2564 190.226 -77.9011 196.382 -77.5493C204.007 -77.1073 213.228 -78.2799 219.114 -83.5564C221.241 -85.4686 223.17 -87.7957 223.062 -90.8172C223.034 -91.5569 222.89 -92.2874 222.683 -93H234.842ZM30.6244 56.9791C28.966 51.7477 23.4768 49.8986 18.961 52.8932C17.0141 54.183 15.2926 56.2034 15.1664 58.6026C15.0402 58.8191 14.932 59.0536 14.8599 59.3152C13.2465 64.6729 18.9791 68.3529 23.7382 67.929C29.2273 67.4329 32.2559 62.1293 30.6244 56.9791Z" fill="white"/>
</g>
</g>
<defs>
<filter id="filter0_d_1127_27591" x="0" y="0" width="428" height="229" filterUnits="userSpaceOnUse" color-interpolation-filters="sRGB">
<feFlood flood-opacity="0" result="BackgroundImageFix"/>
<feColorMatrix in="SourceAlpha" type="matrix" values="0 0 0 0 0 0 0 0 0 0 0 0 0 0 0 0 0 0 127 0" result="hardAlpha"/>
<feOffset dx="4" dy="8"/>
<feGaussianBlur stdDeviation="12"/>
<feComposite in2="hardAlpha" operator="out"/>
<feColorMatrix type="matrix" values="0 0 0 0 0.2 0 0 0 0 0.368627 0 0 0 0 0.968627 0 0 0 0.25 0"/>
<feBlend mode="normal" in2="BackgroundImageFix" result="effect1_dropShadow_1127_27591"/>
<feBlend mode="normal" in="SourceGraphic" in2="effect1_dropShadow_1127_27591" result="shape"/>
</filter>
<linearGradient id="paint0_linear_1127_27591" x1="380" y1="181" x2="22.3458" y2="-36.7097" gradientUnits="userSpaceOnUse">
<stop stop-color="#335EF7"/>
<stop offset="1" stop-color="#5F82FF"/>
</linearGradient>
<clipPath id="clip0_1127_27591">
<rect width="380" height="181" fill="white" transform="translate(20 16)"/>
</clipPath>
</defs>
</svg>
